<?xml version="1.0" standalone="no"?><!DOCTYPE svg PUBLIC "-//W3C//DTD SVG 1.1//EN" "http://www.w3.org/Graphics/SVG/1.1/DTD/svg11.dtd"><svg width="100%" height="100%" viewBox="0 0 303 52" version="1.1" xmlns="http://www.w3.org/2000/svg" xmlns:xlink="http://www.w3.org/1999/xlink" xml:space="preserve" style="fill-rule:evenodd;clip-rule:evenodd;stroke-linejoin:round;stroke-miterlimit:1.41421;"><g><path d="M1.037,50.897l16.577,0l0,-14.167l3.541,0l9.351,14.167l18.914,0l-11.547,-16.859c6.022,-2.905 9.776,-7.934 9.776,-15.16l0,-0.141c0,-5.101 -1.558,-8.784 -4.534,-11.76c-3.471,-3.471 -9.067,-5.667 -17.851,-5.667l-24.227,0l0,49.587ZM17.614,24.9l0,-9.705l7.225,0c3.825,0 6.305,1.558 6.305,4.746l0,0.142c0,3.046 -2.409,4.817 -6.376,4.817l-7.154,0Z" style="fill:#2f2f2f;fill-rule:nonzero;"/><path d="M46.303,50.897l17.71,0l2.55,-6.658l17.356,0l2.621,6.658l17.993,0l-20.898,-49.941l-16.434,0l-20.898,49.941ZM70.743,32.479l4.533,-12.042l4.534,12.042l-9.067,0Z" style="fill:#2f2f2f;fill-rule:nonzero;"/><rect x="106.729" y="1.31" width="16.576" height="49.587" style="fill:#2f2f2f;fill-rule:nonzero;"/><path d="M129.114,50.897l16.434,0l0,-22.881l18.418,22.881l14.735,0l0,-49.587l-16.435,0l0,21.889l-17.639,-21.889l-15.513,0l0,49.587Z" style="fill:#2f2f2f;fill-rule:nonzero;"/><rect x="184.51" y="1.31" width="16.576" height="49.587" style="fill:#2f2f2f;fill-rule:nonzero;"/><path d="M206.895,50.897l42.644,0l0,-13.601l-26.352,0l0,-5.383l24.227,0l0,-11.972l-24.227,0l0,-5.03l25.998,0l0,-13.601l-42.29,0l0,49.587Z" style="fill:#2f2f2f;fill-rule:nonzero;"/><path d="M254.002,50.897l16.577,0l0,-14.167l3.541,0l9.351,14.167l18.914,0l-11.547,-16.859c6.022,-2.905 9.776,-7.934 9.776,-15.16l0,-0.141c0,-5.101 -1.558,-8.784 -4.534,-11.76c-3.471,-3.471 -9.067,-5.667 -17.851,-5.667l-24.227,0l0,49.587ZM270.579,24.9l0,-9.705l7.225,0c3.825,0 6.305,1.558 6.305,4.746l0,0.142c0,3.046 -2.409,4.817 -6.376,4.817l-7.154,0Z" style="fill:#2f2f2f;fill-rule:nonzero;"/></g></svg>